#!OML:ASF H:\Terrain\Patient Classification 1\Walking\steve\steve.ASF
:FULLY-SPECIFIED
:DEGREES
189
root 7.17654 15.7757 7.4294 7.84975 2.28866 -0.231681
lowerback 1.74181 -1.39178 0.999628
upperback -3.00956 -1.71711 2.93773
thorax -4.01763 -0.837107 2.56104
lowerneck -11.7921 -0.334284 -1.30718
upperneck 10.0423 -0.0170975 -1.69885
head 4.94871 -0.173319 -0.317644
rclavicle -5.86415e-015 1.90833e-014
rhumerus -88.6272 -31.0478 -8.94243
rradius 14.1603
rwrist 44.9786
rhand -16.1605 -37.1211
rfingers 7.12502
rthumb 10.0453 -66.8614
lclavicle -5.86415e-015 1.90833e-014
lhumerus 6.67557 -8.83543 82.6949
lradius 45.5362
lwrist 27.0917
lhand -25.7557 -15.4575
lfingers 7.12502
lthumb 0.781684 14.5208
rfemur -43.105 2.18962 25.2624
rtibia 48.5887
rfoot -12.3145 7.68784
rtoes 1.01521
lfemur 5.14941 0.303746 -20.0429
ltibia 48.5431
lfoot 13.6232 5.22035
ltoes -11.0076
190
root 7.16899 15.8396 7.65985 7.94678 2.33701 -0.751959
lowerback 1.63051 -1.19664 1.47786
upperback -3.0697 -1.43637 3.02371
thorax -4.03737 -0.710148 2.36601
lowerneck -11.9706 -0.4456 -0.961867
upperneck 10.5142 -0.164062 -2.09127
head 5.12415 -0.264139 -0.509068
rclavicle 2.09221e-014 -3.97569e-015
rhumerus -87.8717 -32.7279 -10.357
rradius 14.0898
rwrist 45.17
rhand -16.2991 -36.2097
rfingers 7.12502
rthumb 9.91158 -65.9564
lclavicle 2.09221e-014 -3.97569e-015
lhumerus 4.65467 -9.48947 83.4954
lradius 44.8522
lwrist 26.464
lhand -25.4955 -15.6185
lfingers 7.12502
lthumb 1.03298 14.3587
rfemur -42.1463 2.23114 25.8971
rtibia 48.3644
rfoot -13.038 7.92103
rtoes 0.521733
lfemur 3.04003 0.8929 -19.1469
ltibia 51.0485
lfoot 11.2023 3.31533
ltoes -12.8183
191
root 7.17047 15.9055 7.90035 7.98419 2.18856 -0.772502
lowerback 1.49107 -0.943794 1.57571
upperback -3.13424 -1.10119 2.90946
thorax -4.039 -0.547945 2.17401
lowerneck -12.1465 -0.558488 -0.765463
upperneck 11.0619 -0.31856 -2.22742
head 5.32269 -0.347557 -0.598527
rclavicle -3.97569e-015 7.95139e-015
rhumerus -85.6831 -34.0083 -14.2584
rradius 14.1297
rwrist 43.12
rhand -16.3999 -36.1107
rfingers 7.12502
rthumb 9.81435 -65.862
lclavicle -3.97569e-015 7.95139e-015
lhumerus 2.64568 -10.2212 84.2609
lradius 43.8387
lwrist 26.078
lhand -25.1616 -15.572
lfingers 7.12502
lthumb 1.35547 14.4035
rfemur -40.887 2.20787 25.979
rtibia 48.0284
rfoot -14.0494 8.26488
rtoes -1.081
lfemur 0.908758 1.37196 -19.0159
ltibia 53.2776
lfoot 9.29721 2.31082
ltoes -15.0537
192
root 7.17348 15.9659 8.12297 7.92144 2.10919 -0.599239
lowerback 1.49784 -0.728231 1.49659
upperback -3.11383 -0.81968 2.80627
thorax -4.02875 -0.406889 2.09735
lowerneck -11.8305 -0.653565 -1.00728
upperneck 11.0296 -0.419572 -2.15878
head 5.25991 -0.400134 -0.544246
rclavicle 6.5102e-015 -5.56597e-015
rhumerus -81.0891 -34.5722 -21.6889
rradius 14.3089
rwrist 38.1749
rhand -16.5212 -36.963
rfingers 7.12502
rthumb 9.69735 -66.7198
lclavicle 6.5102e-015 -5.56597e-015
lhumerus 0.693721 -10.524 85.2365
lradius 42.69
lwrist 25.5441
lhand -24.5264 -15.7016
lfingers 7.12502
lthumb 1.96895 14.2691
rfemur -39.5238 2.09546 25.8313
rtibia 47.6581
rfoot -14.952 8.65894
rtoes -1.40457
lfemur -1.14729 1.79661 -19.0753
ltibia 55.2642
lfoot 8.19389 2.16898
ltoes -14.9254
193
root 7.1687 16.017 8.33185 7.7634 2.33104 -1.04716
lowerback 1.5787 -0.584468 2.00573
upperback -3.00522 -0.606435 2.89609
thorax -3.97243 -0.31463 1.89383
lowerneck -11.3922 -0.750101 -1.30597
upperneck 10.7434 -0.528319 -2.04518
head 5.09824 -0.452391 -0.465427
rclavicle -5.91384e-015 -7.95139e-016
rhumerus -76.9945 -35.2401 -27.7751
rradius 14.6423
rwrist 34.5906
rhand -16.6784 -37.3617
rfingers 7.12502
rthumb 9.54564 -67.1255
lclavicle -5.91384e-015 -7.95139e-016
lhumerus -1.21305 -10.6049 86.2002
lradius 41.5146
lwrist 24.8379
lhand -23.7881 -15.9397
lfingers 7.12502
lthumb 2.68199 14.0232
rfemur -38.2596 1.87455 26.3834
rtibia 47.1771
rfoot -15.3408 9.12532
rtoes 0.676022
lfemur -3.04566 2.20949 -18.2995
ltibia 57.1185
lfoot 7.16892 1.93737
ltoes -13.9655
194
root 7.17229 16.0622 8.56047 7.94736 2.18684 -0.946687
lowerback 1.07849 -0.327715 2.03527
upperback -2.95913 -0.28886 2.73947
thorax -3.64718 -0.158983 1.69394
lowerneck -11.2524 -0.819156 -1.33035
upperneck 10.827 -0.628924 -1.96531
head 5.10067 -0.497261 -0.443884
rclavicle 1.44119e-015 9.54166e-015
rhumerus -74.5795 -36.6739 -30.6031
rradius 14.7708
rwrist 33.6232
rhand -17.2031 -37.1822
rfingers 7.12502
rthumb 9.0394 -66.9685
lclavicle 1.44119e-015 9.54166e-015
lhumerus -3.2104 -10.7305 87.0391
lradius 40.2392
lwrist 24.0098
lhand -23.5263 -15.7522
lfingers 7.12502
lthumb 2.93485 14.2073
rfemur -37.364 1.77238 26.3521
rtibia 46.6742
rfoot -15.5664 9.55785
rtoes 1.32238
lfemur -5.14188 2.72635 -18.3829
ltibia 58.844
lfoot 5.27465 1.47268
ltoes -16.5584
195
root 7.16893 16.114 8.7993 8.62016 2.30149 -0.867799
lowerback 0.0910863 -0.188989 1.89996
upperback -3.1742 -0.137828 2.71336
thorax -3.31311 -0.0793721 1.73196
lowerneck -10.927 -0.865423 -1.61334
upperneck 10.9846 -0.678463 -1.73888
head 5.09706 -0.51794 -0.330073
rclavicle 4.84538e-015 7.95139e-016
rhumerus -72.5366 -38.1302 -32.2755
rradius 14.6108
rwrist 33.7619
rhand -17.6824 -36.9066
rfingers 7.12502
rthumb 8.57685 -66.7124
lclavicle 4.84538e-015 7.95139e-016
lhumerus -5.5231 -10.7469 87.967
lradius 38.9222
lwrist 23.1529
lhand -23.7035 -16.0028
lfingers 7.12502
lthumb 2.7637 13.959
rfemur -36.7764 1.58932 26.3496
rtibia 45.9999
rfoot -16.0106 9.59348
rtoes 0.242317
lfemur -7.69713 2.80743 -18.512
ltibia 60.1704
lfoot 3.25315 1.23336
ltoes -17.4206
196
root 7.15866 16.17 9.01249 10.2692 2.99965 -0.972259
lowerback -1.40593 -0.235787 1.88442
upperback -3.86462 -0.229074 2.82872
thorax -3.1819 -0.122145 1.8588
lowerneck -10.4213 -0.911385 -1.9819
upperneck 11.1222 -0.725785 -1.47915
head 5.05771 -0.538399 -0.190777
rclavicle 5.31749e-015 -1.82882e-014
rhumerus -68.8316 -38.3405 -36.6316
rradius 14.679
rwrist 32.1489
rhand -17.8742 -36.7012
rfingers 7.12502
rthumb 8.39176 -66.5145
lclavicle 5.31749e-015 -1.82882e-014
lhumerus -8.07864 -10.5979 88.9897
lradius 37.5606
lwrist 22.3339
lhand -24.1225 -16.3158
lfingers 7.12502
lthumb 2.35909 13.6509
rfemur -37.3689 1.19055 26.5479
rtibia 45.3151
rfoot -16.2922 9.54834
rtoes -0.191184
lfemur -11.6497 2.33914 -18.4179
ltibia 61.4694
lfoot 1.8074 1.09879
ltoes -15.515
197
root 7.17157 16.1999 9.26976 7.78184 1.60575 -1.48491
lowerback 0.35394 0.312665 2.24435
upperback -3.04222 0.550198 2.88197
thorax -3.33572 0.257194 1.69122
lowerneck -10.2908 -0.909864 -1.83314
upperneck 11.3952 -0.723298 -1.65071
head 5.11936 -0.54485 -0.268462
rclavicle -2.95692e-015 4.29375e-014
rhumerus -63.9619 -37.6715 -42.8771
rradius 15.1605
rwrist 29.033
rhand -17.9963 -36.2969
rfingers 7.12502
rthumb 8.27392 -66.1149
lclavicle -2.95692e-015 4.29375e-014
lhumerus -10.3343 -10.0977 89.8435
lradius 35.9869
lwrist 21.5111
lhand -24.4588 -16.153
lfingers 7.12502
lthumb 2.03424 13.817
rfemur -33.0159 1.77233 27.1763
rtibia 44.498
rfoot -16.6709 10.4535
rtoes 0.257304
lfemur -9.93353 4.02796 -17.8006
ltibia 62.0453
lfoot -0.41075 0.0571651
ltoes -16.9983
198
root 7.17071 16.2419 9.4812 7.91695 1.7313 -1.74244
lowerback 0.102409 0.377774 2.43948
upperback -3.05113 0.632741 2.96115
thorax -3.20334 0.295003 1.66231
lowerneck -10.1894 -0.868367 -1.75236
upperneck 11.5712 -0.663464 -1.76904
head 5.15631 -0.521554 -0.314165
rclavicle 9.96408e-015 4.77083e-014
rhumerus -59.4808 -37.015 -48.1634
rradius 15.6747
rwrist 26.7379
rhand -17.9894 -35.7742
rfingers 7.12502
rthumb 8.28054 -65.5919
lclavicle 9.96408e-015 4.77083e-014
lhumerus -12.3935 -9.65229 90.4666
lradius 34.5008
lwrist 20.8062
lhand -24.4911 -15.7453
lfingers 7.12502
lthumb 2.00309 14.2251
rfemur -31.8633 1.77148 27.4946
rtibia 43.7022
rfoot -16.9267 10.6245
rtoes 0.792618
lfemur -12.1841 4.14152 -17.4937
ltibia 62.8593
lfoot -1.84947 -0.392722
ltoes -17.4081
199
root 7.17556 16.2779 9.69797 7.90288 1.84794 -1.96232
lowerback -0.0760218 0.50374 2.71007
upperback -3.01853 0.797346 3.00605
thorax -3.06841 0.371607 1.5538
lowerneck -10.2343 -0.966009 -1.88007
upperneck 11.9555 -0.773636 -1.71618
head 5.28436 -0.581953 -0.286882
rclavicle 4.17448e-015 -1.98785e-014
rhumerus -54.677 -35.3211 -53.9898
rradius 16.3177
rwrist 23.4844
rhand -17.9459 -36.5433
rfingers 7.12502
rthumb 8.3225 -66.3594
lclavicle 4.17448e-015 -1.98785e-014
lhumerus -14.4358 -9.56818 91.117
lradius 33.0935
lwrist 20.2215
lhand -24.3808 -14.9905
lfingers 7.12502
lthumb 2.10959 14.9789
rfemur -30.5152 1.78207 27.7497
rtibia 42.8729
rfoot -17.2541 10.5971
rtoes 1.76932
lfemur -14.0538 4.18045 -17.3111
ltibia 63.303
lfoot -2.97758 -0.412108
ltoes -15.7573
200
root 7.18398 16.3031 9.91663 7.77091 2.05095 -2.05216
lowerback -0.094565 0.632579 2.87323
upperback -3.00409 0.971235 3.02281
thorax -3.0424 0.454743 1.47559
lowerneck -10.6702 -1.16564 -1.99194
upperneck 12.6732 -0.996874 -1.73439
head 5.58327 -0.707426 -0.29752
rclavicle 7.05686e-015 1.90833e-014
rhumerus -49.7113 -32.2154 -60.2941
rradius 17.0759
rwrist 18.2777
rhand -19.0005 -38.6502
rfingers 7.12502
rthumb 7.30463 -68.5041
lclavicle 7.05686e-015 1.90833e-014
lhumerus -16.4842 -8.99017 91.845
lradius 31.464
lwrist 19.1876
lhand -23.7773 -14.4288
lfingers 7.12502
lthumb 2.69242 15.534
rfemur -29.0531 1.59436 27.8756
rtibia 42.1389
rfoot -17.6984 10.5161
rtoes 2.23624
lfemur -15.6848 4.15168 -17.3144
ltibia 63.6482
lfoot -4.54207 -0.592615
ltoes -16.4178
201
root 7.18946 16.3266 10.1415 7.66091 2.13889 -2.29612
lowerback -0.092566 0.760839 3.05487
upperback -3.0674 1.15127 3.11949
thorax -3.10932 0.54068 1.4692
lowerneck -10.7834 -1.24083 -2.05086
upperneck 13.0612 -1.07716 -1.74003
head 5.72481 -0.754655 -0.298833
rclavicle 1.15544e-014 1.51076e-014
rhumerus -45.956 -30.5472 -63.9235
rradius 17.1209
rwrist 15.6415
rhand -20.8471 -36.6397
rfingers 7.12502
rthumb 5.52193 -66.5478
lclavicle 1.15544e-014 1.51076e-014
lhumerus -18.7496 -7.83587 92.4249
lradius 29.7641
lwrist 17.7246
lhand -23.2459 -14.2747
lfingers 7.12502
lthumb 3.20566 15.681
rfemur -27.6295 1.33022 28.2208
rtibia 41.466
rfoot -18.479 10.5312
rtoes 1.38224
lfemur -17.3332 4.1069 -17.1463
ltibia 63.7409
lfoot -6.50814 -1.20102
ltoes -18.3182
202
root 7.19483 16.3546 10.3721 7.65562 2.05612 -2.48869
lowerback -0.330105 0.939286 3.22351
upperback -3.10648 1.38112 3.12387
thorax -3.01329 0.651831 1.37739
lowerneck -10.6331 -1.24453 -1.6962
upperneck 13.2996 -1.08486 -2.11775
head 5.76961 -0.770858 -0.476422
rclavicle 7.0817e-015 -2.3059e-014
rhumerus -42.7629 -30.4703 -65.9498
rradius 16.8475
rwrist 15.7619
rhand -21.0602 -37.0736
rfingers 7.12502
rthumb 5.31618 -66.9869
lclavicle 7.0817e-015 -2.3059e-014
lhumerus -20.9535 -6.81375 92.7776
lradius 27.992
lwrist 16.5423
lhand -23.8184 -14.7291
lfingers 7.12502
lthumb 2.65277 15.2341
rfemur -26.4436 1.0792 28.5197
rtibia 40.8897
rfoot -19.1939 10.6936
rtoes 1.01642
lfemur -18.9875 4.078 -17.1163
ltibia 63.5692
lfoot -8.32934 -1.4396
ltoes -19.8206
